<?xml version="1.0" standalone="no"?>
<!DOCTYPE svg PUBLIC "-//W3C//DTD SVG 20010904//EN"
 "http://www.w3.org/TR/2001/REC-SVG-20010904/DTD/svg10.dtd">
<svg version="1.0" xmlns="http://www.w3.org/2000/svg"
 width="251.000000pt" height="251.000000pt" viewBox="0 0 251.000000 251.000000"
 preserveAspectRatio="xMidYMid meet">
<metadata>
Created by potrace 1.14, written by Peter Selinger 2001-2017
</metadata>
<g transform="translate(0.000000,251.000000) scale(0.100000,-0.100000)"
fill="#000000" stroke="none">
<path d="M1205 2298 c-2 -7 -83 -472 -180 -1033 -96 -561 -177 -1030 -180
-1043 l-5 -22 209 0 209 0 12 68 c6 37 39 229 74 427 l62 360 321 3 321 2 6
28 c9 40 56 306 56 315 0 4 -144 7 -320 7 -198 0 -320 4 -320 10 0 5 20 124
45 264 25 141 45 260 45 266 0 6 128 11 363 12 l362 3 27 150 c14 83 27 160
27 173 l1 22 -565 0 c-444 0 -567 -3 -570 -12z"/>
<path d="M0 1764 l0 -95 226 3 226 3 29 33 c32 35 35 57 17 97 -23 50 -48 55
-283 55 l-215 0 0 -96z"/>
<path d="M0 1030 l0 -90 144 0 c141 0 144 0 170 26 38 39 36 93 -5 128 -30 25
-35 26 -170 26 l-139 0 0 -90z"/>
<path d="M0 290 l0 -90 45 0 c91 0 140 55 111 125 -18 42 -42 55 -105 55 l-51
0 0 -90z"/>
</g>
</svg>
