<?xml version="1.0" standalone="no"?>
<!DOCTYPE svg PUBLIC "-//W3C//DTD SVG 20010904//EN"
 "http://www.w3.org/TR/2001/REC-SVG-20010904/DTD/svg10.dtd">
<svg version="1.0" xmlns="http://www.w3.org/2000/svg"
 width="260.000000pt" height="260.000000pt" viewBox="0 0 260.000000 260.000000"
 preserveAspectRatio="xMidYMid meet">
<metadata>
Created by potrace 1.14, written by Peter Selinger 2001-2017
</metadata>
<g transform="translate(0.000000,260.000000) scale(0.100000,-0.100000)"
fill="#000000" stroke="none">
<path d="M0 1300 l0 -1300 1300 0 1300 0 0 1300 0 1300 -1300 0 -1300 0 0
-1300z m2500 612 l0 -587 -127 -23 c-279 -48 -362 -56 -603 -56 -257 -1 -326
7 -630 69 -236 48 -271 54 -409 65 -143 12 -328 1 -503 -30 -62 -11 -116 -20
-120 -20 -5 0 -8 263 -8 585 l0 585 1200 0 1200 0 0 -588z m-1183 -901 c57
-26 75 -58 74 -128 0 -32 -5 -71 -9 -88 -8 -30 -9 -30 -85 -33 l-77 -3 7 62
c7 66 -5 86 -38 68 -22 -11 -47 -145 -30 -162 6 -6 41 -27 78 -47 51 -27 71
-44 87 -74 18 -36 19 -45 7 -130 -15 -109 -37 -162 -80 -198 -76 -64 -211 -63
-284 2 -29 26 -32 34 -32 87 0 32 4 75 8 96 l8 37 79 0 79 0 -7 -37 c-12 -70
-9 -88 15 -91 30 -4 43 24 50 108 l6 68 -71 36 c-114 57 -127 90 -101 245 19
110 55 161 134 189 49 17 136 14 182 -7z m-342 -53 c-4 -35 -9 -66 -12 -70 -2
-5 -37 -8 -77 -8 l-73 0 -11 -77 c-17 -109 -19 -103 38 -103 28 0 50 -3 50 -7
0 -3 -5 -35 -11 -70 l-11 -63 -53 0 -52 0 -12 -69 c-19 -117 -22 -111 60 -111
l71 0 -7 -48 c-14 -101 2 -92 -166 -92 -146 0 -149 0 -149 21 0 22 105 692
115 737 5 22 8 22 156 22 l151 0 -7 -62z m801 -8 l-10 -69 -75 -3 -76 -3 -12
-70 c-19 -110 -20 -105 38 -105 l51 0 -7 -47 c-13 -95 -11 -93 -69 -93 l-53 0
-11 -77 c-7 -43 -12 -84 -12 -90 0 -9 21 -13 71 -13 l71 0 -7 -62 c-4 -35 -9
-66 -12 -71 -2 -4 -71 -7 -154 -7 -132 0 -149 2 -149 16 0 17 105 685 116 737
l6 27 152 0 152 0 -10 -70z m219 43 c-12 -62 -95 -593 -95 -603 0 -6 30 -10
73 -10 l74 0 -11 -67 -11 -68 -153 -3 c-125 -2 -152 0 -152 12 0 7 27 181 60
386 33 205 60 374 60 376 0 2 36 4 80 4 l80 0 -5 -27z"/>
<path d="M670 2295 c0 -3 -25 -160 -55 -349 -30 -189 -55 -350 -55 -360 0 -14
17 -16 139 -16 156 0 144 -7 157 83 l6 47 -69 0 -70 0 13 83 c8 45 14 83 14
85 0 1 22 2 49 2 l49 0 7 43 c3 23 9 50 11 60 5 15 -2 17 -45 17 -57 0 -55 -6
-38 95 l12 70 70 5 70 5 11 62 c6 35 9 65 6 68 -7 7 -282 7 -282 0z"/>
<path d="M1066 2277 c-22 -12 -48 -36 -58 -53 -20 -34 -48 -163 -48 -219 0
-46 35 -84 108 -119 34 -16 63 -35 66 -42 7 -19 -14 -130 -29 -150 -8 -11 -18
-15 -30 -10 -15 6 -17 15 -12 66 l7 60 -70 0 c-38 0 -71 -4 -74 -9 -4 -5 -9
-42 -12 -83 -6 -66 -4 -76 17 -102 30 -38 77 -56 146 -56 74 0 133 27 160 71
26 42 57 191 50 236 -9 51 -40 86 -106 117 -33 16 -62 35 -65 42 -8 21 15 132
30 145 8 6 21 8 30 5 14 -5 16 -16 10 -61 l-6 -55 74 0 73 0 7 46 c14 105 -1
146 -64 179 -46 24 -157 19 -204 -8z"/>
<path d="M1395 2288 c-9 -28 -22 -118 -17 -123 3 -3 23 -5 44 -5 35 0 38 -2
33 -22 -9 -43 -85 -530 -85 -549 0 -17 8 -19 69 -19 46 0 70 4 73 13 3 6 25
139 49 294 l44 283 42 0 c46 0 47 1 58 88 l7 52 -156 0 c-116 0 -158 -3 -161
-12z"/>
<path d="M1755 2268 c-3 -18 -28 -175 -55 -348 -28 -173 -52 -323 -54 -332 -4
-17 8 -18 139 -18 l143 0 6 28 c3 15 8 44 12 65 l6 37 -72 0 c-63 0 -71 2 -66
18 3 9 8 40 11 67 11 85 11 85 66 85 32 0 49 4 50 13 0 6 4 33 8 60 l8 47 -50
0 -49 0 6 33 c3 17 8 56 12 85 l7 52 68 0 c37 0 70 4 73 8 2 4 8 36 12 70 l7
62 -141 0 -141 0 -6 -32z"/>
</g>
</svg>
